<mxfile host="app.diagrams.net" agent="Mozilla/5.0 (Windows NT 10.0; Win64; x64) AppleWebKit/537.36 (KHTML, like Gecko) Chrome/138.0.0.0 Safari/537.36" version="28.1.0">
  <diagram name="Page-1" id="1vpmJHrFygI9PZbd9o-4">
    <mxGraphModel dx="2453" dy="1011" grid="1" gridSize="10" guides="1" tooltips="1" connect="1" arrows="1" fold="1" page="1" pageScale="1" pageWidth="850" pageHeight="1100" math="0" shadow="0">
      <root>
        <mxCell id="0" />
        <mxCell id="1" parent="0" />
        <mxCell id="JS6A3F2QN45-l1n4ZWA--12" value="" style="edgeStyle=orthogonalEdgeStyle;rounded=0;orthogonalLoop=1;jettySize=auto;html=1;entryX=0.5;entryY=0;entryDx=0;entryDy=0;" edge="1" parent="1" source="JS6A3F2QN45-l1n4ZWA--2" target="JS6A3F2QN45-l1n4ZWA--34">
          <mxGeometry relative="1" as="geometry">
            <mxPoint x="120" y="690" as="targetPoint" />
          </mxGeometry>
        </mxCell>
        <mxCell id="JS6A3F2QN45-l1n4ZWA--2" value="&lt;span class=&quot;author-d-1gg9uz65z1iz85zgdz68zmqkz84zo2qowz82z5mwnz73zz77z4z80z0z66zz89zx2cfz67zz74zv9z70zpz71zcz83z6z77zaz72zl5&quot;&gt;&lt;i&gt;&lt;font style=&quot;font-size: 18px;&quot;&gt;Google Main Query Extractor&lt;/font&gt;&lt;/i&gt;&lt;/span&gt;" style="rounded=1;whiteSpace=wrap;html=1;fontSize=14;" vertex="1" parent="1">
          <mxGeometry x="45" y="530" width="150" height="100" as="geometry" />
        </mxCell>
        <mxCell id="JS6A3F2QN45-l1n4ZWA--40" style="edgeStyle=orthogonalEdgeStyle;rounded=0;orthogonalLoop=1;jettySize=auto;html=1;exitX=1;exitY=0.5;exitDx=0;exitDy=0;entryX=0;entryY=0.5;entryDx=0;entryDy=0;" edge="1" parent="1" source="JS6A3F2QN45-l1n4ZWA--4" target="JS6A3F2QN45-l1n4ZWA--38">
          <mxGeometry relative="1" as="geometry" />
        </mxCell>
        <mxCell id="JS6A3F2QN45-l1n4ZWA--4" value="&lt;span class=&quot;author-d-1gg9uz65z1iz85zgdz68zmqkz84zo2qowz82z5mwnz73zz77z4z80z0z66zz89zx2cfz67zz74zv9z70zpz71zcz83z6z77zaz72zl5&quot;&gt;&lt;i&gt;AI Content Optimizer&lt;/i&gt;&lt;/span&gt;" style="rounded=1;whiteSpace=wrap;html=1;fontSize=18;" vertex="1" parent="1">
          <mxGeometry x="450" y="780" width="150" height="100" as="geometry" />
        </mxCell>
        <mxCell id="JS6A3F2QN45-l1n4ZWA--44" style="edgeStyle=orthogonalEdgeStyle;rounded=0;orthogonalLoop=1;jettySize=auto;html=1;exitX=1;exitY=0.5;exitDx=0;exitDy=0;entryX=0;entryY=0.5;entryDx=0;entryDy=0;" edge="1" parent="1" source="JS6A3F2QN45-l1n4ZWA--5" target="JS6A3F2QN45-l1n4ZWA--4">
          <mxGeometry relative="1" as="geometry">
            <Array as="points">
              <mxPoint x="400" y="900" />
              <mxPoint x="400" y="830" />
            </Array>
          </mxGeometry>
        </mxCell>
        <mxCell id="JS6A3F2QN45-l1n4ZWA--5" value="&lt;span class=&quot;author-d-1gg9uz65z1iz85zgdz68zmqkz84zo2qowz82z5mwnz73zz77z4z80z0z66zz89zx2cfz67zz74zv9z70zpz71zcz83z6z77zaz72zl5&quot;&gt;&lt;i&gt;&lt;font&gt;Query Fan-Out Summarizer&lt;/font&gt;&lt;/i&gt;&lt;/span&gt;" style="rounded=1;whiteSpace=wrap;html=1;fontSize=18;" vertex="1" parent="1">
          <mxGeometry x="45" y="850" width="150" height="100" as="geometry" />
        </mxCell>
        <mxCell id="JS6A3F2QN45-l1n4ZWA--8" value="" style="edgeStyle=orthogonalEdgeStyle;rounded=0;orthogonalLoop=1;jettySize=auto;html=1;" edge="1" parent="1" source="JS6A3F2QN45-l1n4ZWA--7" target="JS6A3F2QN45-l1n4ZWA--1">
          <mxGeometry relative="1" as="geometry" />
        </mxCell>
        <mxCell id="JS6A3F2QN45-l1n4ZWA--7" value="URL" style="rounded=0;whiteSpace=wrap;html=1;fontSize=14;" vertex="1" parent="1">
          <mxGeometry x="90" y="95" width="60" height="30" as="geometry" />
        </mxCell>
        <mxCell id="JS6A3F2QN45-l1n4ZWA--17" value="" style="group;verticalAlign=top;" vertex="1" connectable="0" parent="1">
          <mxGeometry x="45" y="190" width="150" height="100" as="geometry" />
        </mxCell>
        <mxCell id="JS6A3F2QN45-l1n4ZWA--1" value="&lt;font style=&quot;font-size: 18px;&quot;&gt;&lt;i&gt;&lt;br&gt;Title Scraper&lt;/i&gt;&lt;/font&gt;" style="rounded=1;whiteSpace=wrap;html=1;fontSize=14;horizontal=1;verticalAlign=top;" vertex="1" parent="JS6A3F2QN45-l1n4ZWA--17">
          <mxGeometry width="150" height="100" as="geometry" />
        </mxCell>
        <mxCell id="JS6A3F2QN45-l1n4ZWA--16" value="🛠️ Web Unlocker" style="rounded=0;whiteSpace=wrap;html=1;fontSize=11;" vertex="1" parent="JS6A3F2QN45-l1n4ZWA--17">
          <mxGeometry x="15" y="70" width="120" height="20" as="geometry" />
        </mxCell>
        <mxCell id="JS6A3F2QN45-l1n4ZWA--18" style="edgeStyle=orthogonalEdgeStyle;rounded=0;orthogonalLoop=1;jettySize=auto;html=1;exitX=0.5;exitY=1;exitDx=0;exitDy=0;entryX=0.5;entryY=0;entryDx=0;entryDy=0;" edge="1" parent="1" source="JS6A3F2QN45-l1n4ZWA--1" target="JS6A3F2QN45-l1n4ZWA--25">
          <mxGeometry relative="1" as="geometry" />
        </mxCell>
        <mxCell id="JS6A3F2QN45-l1n4ZWA--19" value="Page title" style="text;strokeColor=none;fillColor=none;align=left;verticalAlign=middle;spacingLeft=4;spacingRight=4;overflow=hidden;points=[[0,0.5],[1,0.5]];portConstraint=eastwest;rotatable=0;whiteSpace=wrap;html=1;fontSize=14;" vertex="1" parent="1">
          <mxGeometry x="120" y="310" width="80" height="30" as="geometry" />
        </mxCell>
        <mxCell id="JS6A3F2QN45-l1n4ZWA--24" value="" style="group;verticalAlign=bottom;" vertex="1" connectable="0" parent="1">
          <mxGeometry x="10" y="360" width="220" height="100" as="geometry" />
        </mxCell>
        <mxCell id="JS6A3F2QN45-l1n4ZWA--25" value="&lt;font style=&quot;&quot;&gt;&lt;span style=&quot;font-size: 18px;&quot;&gt;&lt;i&gt;Google Query Fan-Out Researcher&lt;/i&gt;&lt;/span&gt;&lt;/font&gt;" style="rounded=1;whiteSpace=wrap;html=1;fontSize=14;verticalAlign=top;" vertex="1" parent="JS6A3F2QN45-l1n4ZWA--24">
          <mxGeometry width="219.99999999999997" height="100.00000000000003" as="geometry" />
        </mxCell>
        <mxCell id="JS6A3F2QN45-l1n4ZWA--26" value="🛠️ Google Search" style="rounded=0;whiteSpace=wrap;html=1;fontSize=11;" vertex="1" parent="JS6A3F2QN45-l1n4ZWA--24">
          <mxGeometry x="22" y="70.00000000000004" width="176" height="20" as="geometry" />
        </mxCell>
        <mxCell id="JS6A3F2QN45-l1n4ZWA--28" style="edgeStyle=orthogonalEdgeStyle;rounded=0;orthogonalLoop=1;jettySize=auto;html=1;exitX=0.5;exitY=1;exitDx=0;exitDy=0;entryX=0.5;entryY=0;entryDx=0;entryDy=0;" edge="1" parent="1" source="JS6A3F2QN45-l1n4ZWA--25" target="JS6A3F2QN45-l1n4ZWA--2">
          <mxGeometry relative="1" as="geometry" />
        </mxCell>
        <mxCell id="JS6A3F2QN45-l1n4ZWA--48" style="edgeStyle=orthogonalEdgeStyle;rounded=0;orthogonalLoop=1;jettySize=auto;html=1;exitX=0;exitY=0.5;exitDx=0;exitDy=0;entryX=0;entryY=0.5;entryDx=0;entryDy=0;" edge="1" parent="1" source="JS6A3F2QN45-l1n4ZWA--29" target="JS6A3F2QN45-l1n4ZWA--5">
          <mxGeometry relative="1" as="geometry">
            <Array as="points">
              <mxPoint x="120" y="500" />
              <mxPoint x="-80" y="500" />
              <mxPoint x="-80" y="900" />
            </Array>
          </mxGeometry>
        </mxCell>
        <mxCell id="JS6A3F2QN45-l1n4ZWA--29" value="Query fan-out" style="text;strokeColor=none;fillColor=none;align=left;verticalAlign=middle;spacingLeft=4;spacingRight=4;overflow=hidden;points=[[0,0.5],[1,0.5]];portConstraint=eastwest;rotatable=0;whiteSpace=wrap;html=1;fontSize=14;" vertex="1" parent="1">
          <mxGeometry x="120" y="470" width="110" height="30" as="geometry" />
        </mxCell>
        <mxCell id="JS6A3F2QN45-l1n4ZWA--32" value="Main search query" style="text;strokeColor=none;fillColor=none;align=left;verticalAlign=middle;spacingLeft=4;spacingRight=4;overflow=hidden;points=[[0,0.5],[1,0.5]];portConstraint=eastwest;rotatable=0;whiteSpace=wrap;html=1;fontSize=14;" vertex="1" parent="1">
          <mxGeometry x="120" y="650" width="150" height="30" as="geometry" />
        </mxCell>
        <mxCell id="JS6A3F2QN45-l1n4ZWA--33" value="" style="group;verticalAlign=bottom;" vertex="1" connectable="0" parent="1">
          <mxGeometry x="10" y="700" width="220" height="100" as="geometry" />
        </mxCell>
        <mxCell id="JS6A3F2QN45-l1n4ZWA--34" value="&lt;font style=&quot;font-size: 18px;&quot;&gt;Google AI Overview Retriever&lt;/font&gt;" style="rounded=1;whiteSpace=wrap;html=1;fontSize=14;verticalAlign=top;" vertex="1" parent="JS6A3F2QN45-l1n4ZWA--33">
          <mxGeometry width="219.99999999999997" height="100.00000000000003" as="geometry" />
        </mxCell>
        <mxCell id="JS6A3F2QN45-l1n4ZWA--35" value="🛠️ SERP API" style="rounded=0;whiteSpace=wrap;html=1;fontSize=11;" vertex="1" parent="JS6A3F2QN45-l1n4ZWA--33">
          <mxGeometry x="22" y="70.00000000000004" width="176" height="20" as="geometry" />
        </mxCell>
        <mxCell id="JS6A3F2QN45-l1n4ZWA--38" value="Markdown GEO content optimization report" style="rounded=0;whiteSpace=wrap;html=1;fontSize=14;" vertex="1" parent="1">
          <mxGeometry x="720" y="790" width="190" height="80" as="geometry" />
        </mxCell>
        <mxCell id="JS6A3F2QN45-l1n4ZWA--41" value="Report" style="text;strokeColor=none;fillColor=none;align=left;verticalAlign=middle;spacingLeft=4;spacingRight=4;overflow=hidden;points=[[0,0.5],[1,0.5]];portConstraint=eastwest;rotatable=0;whiteSpace=wrap;html=1;fontSize=14;" vertex="1" parent="1">
          <mxGeometry x="630" y="800" width="150" height="30" as="geometry" />
        </mxCell>
        <mxCell id="JS6A3F2QN45-l1n4ZWA--42" style="edgeStyle=orthogonalEdgeStyle;rounded=0;orthogonalLoop=1;jettySize=auto;html=1;exitX=1;exitY=0.5;exitDx=0;exitDy=0;entryX=0;entryY=0.5;entryDx=0;entryDy=0;" edge="1" parent="1" source="JS6A3F2QN45-l1n4ZWA--34" target="JS6A3F2QN45-l1n4ZWA--4">
          <mxGeometry relative="1" as="geometry">
            <Array as="points">
              <mxPoint x="400" y="750" />
              <mxPoint x="400" y="830" />
            </Array>
          </mxGeometry>
        </mxCell>
        <mxCell id="JS6A3F2QN45-l1n4ZWA--45" value="Quey fan-out summary" style="text;strokeColor=none;fillColor=none;align=left;verticalAlign=middle;spacingLeft=4;spacingRight=4;overflow=hidden;points=[[0,0.5],[1,0.5]];portConstraint=eastwest;rotatable=0;whiteSpace=wrap;html=1;fontSize=14;" vertex="1" parent="1">
          <mxGeometry x="230" y="870" width="170" height="30" as="geometry" />
        </mxCell>
        <mxCell id="JS6A3F2QN45-l1n4ZWA--46" value="Google AI Overview" style="text;strokeColor=none;fillColor=none;align=left;verticalAlign=middle;spacingLeft=4;spacingRight=4;overflow=hidden;points=[[0,0.5],[1,0.5]];portConstraint=eastwest;rotatable=0;whiteSpace=wrap;html=1;fontSize=14;" vertex="1" parent="1">
          <mxGeometry x="250" y="720" width="150" height="30" as="geometry" />
        </mxCell>
      </root>
    </mxGraphModel>
  </diagram>
</mxfile>
